# xmcd CD database file
#
# Track frame offsets:
#	150
#	15587
#	30747
#	44057
#	57785
#	72120
#	87005
#	104195
#	119275
#	134465
#	149525
#	163092
#	176617
#	190140
#	204452
#	219447
#	232695
#	246610
#	262010
#
# Disc length: 3725 seconds
#
# Revision: 0
# Processed by: cddbd v1.5.1PL0 Copyright (c) Steve Scherf et al.
# Submitted via: CDex 1.51
#
DISCID=1c0e8b13
DTITLE=Reverend J.M. Gates - Are You Bound For Heaven Or Hell?: The Best Of Reverend J.M. Gates
DYEAR=1900
DGENRE=Blues
TTITLE0=Good Bye To Chain Stores, Part 1
TTITLE1=Good Bye To Chain Stores, Part 2
TTITLE2=The End Of The World And Time Will Be No More
TTITLE3=Are You Bound For Heaven Or Hell?
TTITLE4=Devil In A Flying Machine
TTITLE5=Things That You Can Move Don't Ask God To Move
TTITLE6=David And Uriah
TTITLE7=The Woman And The Snake
TTITLE8=Pay Your Policy Man
TTITLE9=Kinky Hair Is No Disgrace
TTITLE10=No Room In The Jailhouse
TTITLE11=Saturday Night Black Marier Riders
TTITLE12=Hell Bound Express Train
TTITLE13=Meeting The Judge On A Monday Morning
TTITLE14=Mannish Woman
TTITLE15=Did You Spend Christmas Day In Jail?
TTITLE16=Down Here Lord, Waiting On You
TTITLE17=Death's Black Train Is Coming
TTITLE18=Scat To The Cat And Suie To The Hog
EXTD=
EXTT0=
EXTT1=
EXTT2=
EXTT3=
EXTT4=
EXTT5=
EXTT6=
EXTT7=
EXTT8=
EXTT9=
EXTT10=
EXTT11=
EXTT12=
EXTT13=
EXTT14=
EXTT15=
EXTT16=
EXTT17=
EXTT18=
PLAYORDER=
